<svg width="70" height="79" viewBox="0 0 70 79" fill="none" xmlns="http://www.w3.org/2000/svg">
<path fill-rule="evenodd" clip-rule="evenodd" d="M24.9539 19.6425C25.2624 18.9727 25.6238 18.4524 25.8626 18.178C25.8673 18.8251 25.7676 19.4055 25.6132 19.91C26.0885 20.1392 26.5824 20.4602 27.0543 20.9032C26.6907 20.8922 26.0632 20.8041 25.3618 20.5757C25.0385 21.2885 24.6299 21.7808 24.362 22.0099C24.3801 21.41 24.5064 20.835 24.6837 20.3163C24.1827 20.0943 23.675 19.7966 23.2224 19.4026C23.5725 19.3615 24.2112 19.3958 24.9539 19.6425Z" fill="url(#paint0_linear_740_612)"/>
<path fill-rule="evenodd" clip-rule="evenodd" d="M22.5146 12.9323C22.72 12.4865 22.9605 12.1402 23.1195 11.9576C23.1226 12.3882 23.0563 12.7745 22.9535 13.1103C23.2699 13.2629 23.5987 13.4766 23.9128 13.7715C23.6708 13.7641 23.253 13.7055 22.7862 13.5534C22.571 14.028 22.299 14.3556 22.1206 14.5081C22.1327 14.1088 22.2168 13.726 22.3348 13.3808C22.0013 13.233 21.6635 13.0348 21.3622 12.7726C21.5953 12.7453 22.0203 12.7681 22.5146 12.9323Z" fill="url(#paint1_linear_740_612)"/>
<path fill-rule="evenodd" clip-rule="evenodd" d="M15.9134 6.26213C16.222 5.59233 16.5834 5.07202 16.8222 4.79767C16.8269 5.44473 16.7272 6.02514 16.5728 6.52959C17.048 6.75883 17.542 7.07985 18.0139 7.52284C17.6503 7.51184 17.0227 7.42375 16.3214 7.19528C15.9981 7.90817 15.5895 8.40038 15.3215 8.62953C15.3397 8.02958 15.4659 7.4546 15.6433 6.93594C15.1423 6.71391 14.6346 6.41618 14.1821 6.02219C14.5321 5.98115 15.1708 6.01543 15.9134 6.26213Z" fill="url(#paint2_linear_740_612)"/>
<path fill-rule="evenodd" clip-rule="evenodd" d="M14.8677 21.2799C15.3217 20.2944 15.8534 19.5289 16.2048 19.1252C16.2117 20.0773 16.065 20.9313 15.8377 21.6735C16.5368 22.0108 17.2633 22.483 17.9574 23.1345C17.4225 23.1183 16.4995 22.9888 15.4679 22.6528C14.9923 23.7015 14.3911 24.4257 13.997 24.7628C14.0237 23.8802 14.2094 23.0343 14.4703 22.2713C13.733 21.9446 12.9859 21.5065 12.3198 20.9267C12.835 20.8663 13.7748 20.9168 14.8677 21.2799Z" fill="url(#paint3_linear_740_612)"/>
<circle cx="17.5988" cy="14.535" r="0.397721" transform="rotate(21.3865 17.5988 14.535)" fill="#2F235A"/>
<circle cx="27.4465" cy="9.53417" r="0.397721" transform="rotate(21.3865 27.4465 9.53417)" fill="#FE9076"/>
<circle cx="8.54293" cy="11.7068" r="0.397721" transform="rotate(21.3865 8.54293 11.7068)" fill="#FFA400"/>
<circle cx="17.0833" cy="27.7209" r="0.397721" transform="rotate(21.3865 17.0833 27.7209)" fill="#23BB86"/>
<path d="M27.1442 7.63321C26.7573 6.15538 25.3607 2.77553 22.8697 1.07874" stroke="#FE9076" stroke-width="0.346178" stroke-linecap="round"/>
<path d="M7.36927 10.1023C6.40646 8.91629 3.73849 6.41512 0.769056 5.89876" stroke="#FFA400" stroke-width="0.346178" stroke-linecap="round"/>
<path d="M15.3909 28.299C14.5376 28.6101 12.3897 29.6017 10.6239 31.0785" stroke="#23BB86" stroke-width="0.346178" stroke-linecap="round"/>
<path fill-rule="evenodd" clip-rule="evenodd" d="M44.6632 19.6425C44.3546 18.9727 43.9932 18.4524 43.7544 18.178C43.7497 18.8251 43.8494 19.4055 44.0039 19.91C43.5286 20.1392 43.0347 20.4602 42.5628 20.9032C42.9264 20.8922 43.5539 20.8041 44.2552 20.5757C44.5785 21.2885 44.9871 21.7807 45.2551 22.0099C45.2369 21.41 45.1107 20.835 44.9333 20.3163C45.4344 20.0943 45.942 19.7966 46.3946 19.4026C46.0445 19.3615 45.4059 19.3958 44.6632 19.6425Z" fill="url(#paint4_linear_740_612)"/>
<path fill-rule="evenodd" clip-rule="evenodd" d="M47.1025 12.9321C46.8971 12.4863 46.6566 12.1399 46.4976 11.9573C46.4945 12.388 46.5609 12.7743 46.6636 13.1101C46.3473 13.2627 46.0185 13.4764 45.7043 13.7713C45.9464 13.764 46.3641 13.7053 46.831 13.5532C47.0462 14.0278 47.3182 14.3554 47.4965 14.5079C47.4844 14.1086 47.4004 13.7258 47.2823 13.3806C47.6158 13.2328 47.9537 13.0346 48.2549 12.7724C48.0219 12.7451 47.5968 12.7679 47.1025 12.9321Z" fill="url(#paint5_linear_740_612)"/>
<path fill-rule="evenodd" clip-rule="evenodd" d="M53.7037 6.26177C53.3952 5.59196 53.0338 5.07165 52.7949 4.7973C52.7902 5.44436 52.89 6.02478 53.0444 6.52924C52.5691 6.75847 52.0752 7.07949 51.6033 7.52246C51.9669 7.51146 52.5944 7.42338 53.2958 7.19492C53.619 7.9078 54.0277 8.40001 54.2956 8.62915C54.2774 8.02922 54.1512 7.45424 53.9739 6.93559C54.4749 6.71355 54.9825 6.41581 55.4351 6.02182C55.085 5.98078 54.4464 6.01506 53.7037 6.26177Z" fill="url(#paint6_linear_740_612)"/>
<path fill-rule="evenodd" clip-rule="evenodd" d="M54.7495 21.28C54.2955 20.2945 53.7638 19.529 53.4124 19.1253C53.4055 20.0774 53.5523 20.9314 53.7795 21.6736C53.0804 22.0109 52.354 22.4831 51.6598 23.1346C52.1947 23.1185 53.1177 22.9889 54.1493 22.6529C54.6249 23.7017 55.2261 24.4258 55.6202 24.7629C55.5935 23.8803 55.4078 23.0345 55.147 22.2714C55.8843 21.9448 56.6313 21.5066 57.2974 20.9268C56.7822 20.8664 55.8424 20.9169 54.7495 21.28Z" fill="url(#paint7_linear_740_612)"/>
<circle r="0.397721" transform="matrix(-0.931142 0.364658 0.364658 0.931142 52.0182 14.5351)" fill="#2F235A"/>
<circle r="0.397721" transform="matrix(-0.931142 0.364658 0.364658 0.931142 42.1704 9.53429)" fill="#FE9076"/>
<circle r="0.397721" transform="matrix(-0.931142 0.364658 0.364658 0.931142 61.074 11.7069)" fill="#FFA400"/>
<circle r="0.397721" transform="matrix(-0.931142 0.364658 0.364658 0.931142 52.5336 27.7211)" fill="#23BB86"/>
<path d="M42.4727 7.63333C42.8596 6.1555 44.2563 2.77565 46.7472 1.07886" stroke="#FE9076" stroke-width="0.346178" stroke-linecap="round"/>
<path d="M62.2477 10.1025C63.2105 8.91641 65.8785 6.41524 68.8479 5.89888" stroke="#FFA400" stroke-width="0.346178" stroke-linecap="round"/>
<path d="M54.2261 28.2991C55.0793 28.6102 57.2273 29.6018 58.993 31.0786" stroke="#23BB86" stroke-width="0.346178" stroke-linecap="round"/>
<rect x="13.1101" y="49.5948" width="42.2141" height="29.181" fill="url(#paint8_linear_740_612)"/>
<mask id="mask0_740_612" style="mask-type:alpha" maskUnits="userSpaceOnUse" x="13" y="49" width="43" height="30">
<rect x="13.1101" y="49.5948" width="42.2141" height="29.181" fill="#C4C4C4"/>
</mask>
<g mask="url(#mask0_740_612)">
<path d="M15.1076 48.8518L43.8525 48.8518L37.3555 60.133L8.6106 60.133L15.1076 48.8518Z" fill="black" fill-opacity="0.07"/>
<rect x="41.8174" y="49.5948" width="42.2141" height="29.181" fill="url(#paint9_linear_740_612)"/>
</g>
<path d="M13.0729 49.5949L41.8178 49.5948L36.2651 58.861L7.52026 58.861L13.0729 49.5949Z" fill="url(#paint10_linear_740_612)"/>
<mask id="mask1_740_612" style="mask-type:alpha" maskUnits="userSpaceOnUse" x="41" y="49" width="15" height="30">
<rect x="41.8174" y="49.5948" width="13.5065" height="29.181" fill="#C4C4C4"/>
</mask>
<g mask="url(#mask1_740_612)">
<path d="M53.68 49.5464L40.1523 49.5464L46.5087 60.2146L60.0364 60.2146L53.68 49.5464Z" fill="black" fill-opacity="0.07"/>
</g>
<path d="M55.3449 49.5949L41.8173 49.5948L47.3699 58.861L60.8976 58.861L55.3449 49.5949Z" fill="url(#paint11_linear_740_612)"/>
<circle cx="27.1708" cy="42.1623" r="3.98921" fill="url(#paint12_linear_740_612)"/>
<circle cx="42.5008" cy="32.3274" r="3.85479" fill="url(#paint13_linear_740_612)"/>
<circle cx="28.0516" cy="27.3551" r="3.10851" fill="url(#paint14_linear_740_612)"/>
<circle cx="36.6833" cy="20.2563" r="2.812" fill="url(#paint15_linear_740_612)"/>
<circle cx="31.16" cy="12.4463" r="2.17835" fill="url(#paint16_linear_740_612)"/>
<circle cx="34.9031" cy="31.5523" r="0.775212" fill="#FFA800" fill-opacity="0.23"/>
<circle cx="47.7955" cy="25.0218" r="0.775212" fill="#FFA800" fill-opacity="0.23"/>
<circle cx="48.5711" cy="12.4464" r="0.775212" fill="#FFA800" fill-opacity="0.23"/>
<circle cx="22.4067" cy="13.8494" r="0.775212" fill="#FFA800" fill-opacity="0.23"/>
<circle cx="38.1916" cy="43.8841" r="0.775212" fill="#FFA800" fill-opacity="0.23"/>
<circle cx="18.739" cy="30.0018" r="0.775212" fill="#FFA800" fill-opacity="0.23"/>
<path d="M55.4236 49.7329H13.0765L6.573 9.63428H63.233L55.4236 49.7329Z" fill="url(#paint17_linear_740_612)"/>
<defs>
<linearGradient id="paint0_linear_740_612" x1="25.7455" y1="18.6026" x2="24.3365" y2="22.2005" gradientUnits="userSpaceOnUse">
<stop stop-color="#FFE89E"/>
<stop offset="1" stop-color="#FFBF1A"/>
</linearGradient>
<linearGradient id="paint1_linear_740_612" x1="23.0416" y1="12.2401" x2="22.1037" y2="14.6349" gradientUnits="userSpaceOnUse">
<stop stop-color="#FFE89E"/>
<stop offset="1" stop-color="#FFBF1A"/>
</linearGradient>
<linearGradient id="paint2_linear_740_612" x1="16.7051" y1="5.22222" x2="15.2961" y2="8.82009" gradientUnits="userSpaceOnUse">
<stop stop-color="#FFE89E"/>
<stop offset="1" stop-color="#FFBF1A"/>
</linearGradient>
<linearGradient id="paint3_linear_740_612" x1="16.0319" y1="19.7496" x2="13.9589" y2="25.0429" gradientUnits="userSpaceOnUse">
<stop stop-color="#FFE89E"/>
<stop offset="1" stop-color="#FFBF1A"/>
</linearGradient>
<linearGradient id="paint4_linear_740_612" x1="43.8715" y1="18.6026" x2="45.2806" y2="22.2005" gradientUnits="userSpaceOnUse">
<stop stop-color="#FFE89E"/>
<stop offset="1" stop-color="#FFBF1A"/>
</linearGradient>
<linearGradient id="paint5_linear_740_612" x1="46.5755" y1="12.2399" x2="47.5133" y2="14.6348" gradientUnits="userSpaceOnUse">
<stop stop-color="#FFE89E"/>
<stop offset="1" stop-color="#FFBF1A"/>
</linearGradient>
<linearGradient id="paint6_linear_740_612" x1="52.9121" y1="5.22186" x2="54.3211" y2="8.81972" gradientUnits="userSpaceOnUse">
<stop stop-color="#FFE89E"/>
<stop offset="1" stop-color="#FFBF1A"/>
</linearGradient>
<linearGradient id="paint7_linear_740_612" x1="53.5853" y1="19.7497" x2="55.6582" y2="25.043" gradientUnits="userSpaceOnUse">
<stop stop-color="#FFE89E"/>
<stop offset="1" stop-color="#FFBF1A"/>
</linearGradient>
<linearGradient id="paint8_linear_740_612" x1="27.2116" y1="44.1923" x2="10.387" y2="90.532" gradientUnits="userSpaceOnUse">
<stop stop-color="#FFD481"/>
<stop offset="1" stop-color="#FA620C"/>
</linearGradient>
<linearGradient id="paint9_linear_740_612" x1="20.3125" y1="47.744" x2="71.3731" y2="102.309" gradientUnits="userSpaceOnUse">
<stop stop-color="#FFD481"/>
<stop offset="0.83311" stop-color="#FA620C"/>
</linearGradient>
<linearGradient id="paint10_linear_740_612" x1="13.6645" y1="46.2831" x2="12.2984" y2="66.0264" gradientUnits="userSpaceOnUse">
<stop stop-color="#FFD481"/>
<stop offset="1" stop-color="#FA620C"/>
</linearGradient>
<linearGradient id="paint11_linear_740_612" x1="57.4795" y1="46.2831" x2="59.9092" y2="65.8187" gradientUnits="userSpaceOnUse">
<stop stop-color="#FFD481"/>
<stop offset="1" stop-color="#FA620C"/>
</linearGradient>
<linearGradient id="paint12_linear_740_612" x1="27.4729" y1="36.8565" x2="26.7141" y2="47.6244" gradientUnits="userSpaceOnUse">
<stop stop-color="#FF9F81"/>
<stop offset="1" stop-color="#F53838"/>
</linearGradient>
<linearGradient id="paint13_linear_740_612" x1="42.7927" y1="27.2004" x2="42.0594" y2="37.6055" gradientUnits="userSpaceOnUse">
<stop stop-color="#FF9F81"/>
<stop offset="1" stop-color="#F53838"/>
</linearGradient>
<linearGradient id="paint14_linear_740_612" x1="28.287" y1="23.2207" x2="27.6957" y2="31.6113" gradientUnits="userSpaceOnUse">
<stop stop-color="#FF9F81"/>
<stop offset="1" stop-color="#F53838"/>
</linearGradient>
<linearGradient id="paint15_linear_740_612" x1="36.8963" y1="16.5163" x2="36.3614" y2="24.1065" gradientUnits="userSpaceOnUse">
<stop stop-color="#FF9F81"/>
<stop offset="1" stop-color="#F53838"/>
</linearGradient>
<linearGradient id="paint16_linear_740_612" x1="31.325" y1="9.54902" x2="30.9106" y2="15.4289" gradientUnits="userSpaceOnUse">
<stop stop-color="#FF9F81"/>
<stop offset="1" stop-color="#F53838"/>
</linearGradient>
<linearGradient id="paint17_linear_740_612" x1="34.4374" y1="9.63428" x2="34.4374" y2="94.8249" gradientUnits="userSpaceOnUse">
<stop stop-color="white" stop-opacity="0"/>
<stop offset="1" stop-color="#FE9277"/>
</linearGradient>
</defs>
</svg>
